# xmcd CD database file
#
# Track frame offsets:
#	150
#	16320
#	35575
#
# Disc length: 687 seconds
#
# Revision: 0
# Processed by: cddbd v1.5.1PL0 Copyright (c) Steve Scherf et al.
# Submitted via: CDex 1.51
#
DISCID=1b02ad03
DTITLE=未来-MIKU- - 桜待ち
DYEAR=2003
DGENRE=Pop
TTITLE0=桜待ち
TTITLE1=Dear you
TTITLE2=桜待ち(instrumental)
EXTD=YEAR: 2003
EXTT0=
EXTT1=
EXTT2=
PLAYORDER=
